<svg version="1.2" xmlns="http://www.w3.org/2000/svg" viewBox="0 0 900 300" width="1800" height="600">
	<title>desktopLogo-svg</title>
	<style>
		.s0 { fill: #f14660;stroke: #f14660;stroke-linecap: round;stroke-linejoin: round;stroke-width: 10.9 }
		.s1 { fill: #cf4376;stroke: #cf4376;stroke-linecap: round;stroke-linejoin: round;stroke-width: 10.9 }
		.s2 { fill: #be4281;stroke: #be4281;stroke-linecap: round;stroke-linejoin: round;stroke-width: 10.9 }
		.s3 { fill: #ad408c;stroke: #ad408c;stroke-linecap: round;stroke-linejoin: round;stroke-width: 10.9 }
		.s4 { fill: #e70b67 }
	</style>
	<g id="logo-group">
		<g id="logo-center">
			<g id="title">
				<path id="path574114" class="s0" d="m157.2 97.7v104.8c0 1.1-0.7 2.1-1.8 2.6h-1c-0.8 0-1.6-0.3-2-1l-73.1-98.3v96.7c0 1.5-1.3 2.6-2.7 2.6-1.4 0-2.7-1.1-2.7-2.6v-104.8c0-1.3 0.8-2.3 1.9-2.6 1-0.5 2.2 0 2.9 1l73.2 98.3v-96.7c0-1.6 1.1-2.7 2.5-2.7 1.6 0 2.8 1.1 2.8 2.7z"/>
				<path id="path574118" class="s1" d="m555.8 97.7v104.8c0 1.5-1.1 2.6-2.7 2.6-1.4 0-2.7-1.1-2.7-2.6v-92.4l-41.9 93.4v0.1c-0.1 0.2-0.1 0.4-0.3 0.5v0.2c-0.2 0.1-0.3 0.3-0.6 0.3 0 0.2 0 0.2-0.2 0.2l-0.2 0.1c-0.1 0-0.1 0-0.3 0 0 0 0 0.2-0.1 0.2h-0.7-0.6c-0.2 0-0.2-0.2-0.2-0.2h-0.3l-0.2-0.1c-0.1 0-0.1 0-0.1-0.2-0.2 0-0.5-0.2-0.5-0.3-0.2 0-0.2-0.2-0.2-0.2l-0.3-0.5c0 0 0 0 0-0.1 0 0-41.7-93.3-41.9-93.4-0.2-0.1 0 92.4 0 92.4 0 1.5-1.2 2.6-2.7 2.6-1.4 0-2.7-1.1-2.7-2.6v-104.8c0-1.3 1-2.4 2.1-2.7 1.3-0.2 2.5 0.4 3 1.6l44.6 99.2 44.6-99.2c0.5-1.2 1.8-1.8 3-1.6 1.2 0.3 2.1 1.4 2.1 2.7z"/>
				<path id="path574120" fill-rule="evenodd" class="s2" d="m693.5 204.9c-0.3 0.2-0.6 0.2-1 0.2-1.1 0-2-0.5-2.5-1.6l-12.8-30.4q0.1-0.3 0.1-0.6c0-0.9-0.5-1.7-1.2-2.1l-28.3-67.6-28.3 67.2c-1.3 0.1-2.4 1.2-2.4 2.5 0 0.7 0.2 1.3 0.6 1.8l-12.3 29.2c-0.5 1.4-2.1 2.1-3.5 1.4-1.3-0.6-1.9-2.1-1.4-3.5 0 0 44.2-105.3 44.7-106.6 0.3-0.5 0.7-1 1.3-1.3 1.1-0.6 2.6-0.3 3.4 0.8 0 0 0.1 0 0.1 0.2 0.2 0.3 0.3 0.5 0.5 0.9l44.4 106c0.7 1.4 0 2.9-1.4 3.5zm-18.9-34.9h-54.8q-0.1 0-0.3 0l-1.8 4.3c0.5 0.6 1.3 0.9 2.1 0.9h54.8c1.4 0 2.4-0.8 2.6-2.1l-1.1-2.7q-0.6-0.4-1.5-0.4z"/>
				<path id="path574122" fill-rule="evenodd" class="s3" d="m826.1 150.1c0 14.7-5.6 28.5-16.1 38.8-10.4 10.6-24.2 16.2-38.9 16.2h-29.1c-1.4 0-2.7-1.1-2.7-2.6 0-0.9 0.5-1.7 1.1-2.2 0.5 0.5 1.2 0.8 2 0.8 1 0 1.9-0.5 2.3-1.3h26.4c13.3 0 25.8-5.3 35.2-14.5 9.3-9.5 14.5-21.9 14.5-35.2 0-27.5-22.3-49.7-49.7-49.7h-27.1c-0.5-0.3-1-0.5-1.6-0.5q-0.7 0-1.3 0.3c-1-0.4-1.8-1.4-1.8-2.5 0-1.6 1.3-2.7 2.7-2.7h29.1c30.4 0 55 24.7 55 55.1zm-84.1 49.7h2.7q0.4-0.6 0.4-1.4v-95.8c0-0.9-0.4-1.7-1.1-2.2h-2q-0.4 0-0.9-0.2c-0.8 0.5-1.4 1.4-1.4 2.4v95.8c0 0.8 0.3 1.4 0.7 1.9 0.5-0.3 1.1-0.5 1.6-0.5z"/>
			</g>
		</g>
	</g>
	<path id="Layer" fill-rule="evenodd" class="s4" d="m359.2 44.4c4.8 1.6 8.2 3.6 12.3 7 8.4 7 13.7 16.5 15.3 27.1 0.6 4.3 0.4 8.7-0.7 14.6-0.8 4.6-0.5 5.7 2.7 11.1 7.3 12.2 10.8 22.2 12.5 35.1 0.6 5 0.9 17.2 0.5 22.6-0.7 10-3.1 20.2-6.7 28.9-2.5 5.9-7 13.9-11.2 19.6-10.8 14.8-24.6 25.6-41.2 32-7 2.8-15.9 4.9-25.2 6.1-4.3 0.5-16.1 0.6-20.4 0.1-16.9-2-32-8.2-46.2-19-8-6-15-13.5-20.9-22.2-8.9-13.3-13.5-25.7-15.7-42.2-0.4-3.6-0.4-18.7 0-22.8 1.6-14.1 5.7-26.2 12.7-37.9 7.4-12.3 17.5-22.9 29.1-30.6 8.3-5.5 16.8-9.4 27.1-12.4 8.6-2.5 14-3.3 20.2-3.1 4.3 0.2 5.8 0 8.1-1.1 1.4-0.7 2.2-1.4 3.6-3 6.2-6.8 14-10.6 24.7-12 5.8-0.8 13.5 0.1 19.4 2.1zm-26.4 36.5c-1 3.2-0.6 5.3 1.6 8.2 1.5 2.3 4.6 5.1 5.8 5.6 1.4 0.4 6.6 0.4 8.3 0 4.4-1.3 7.8-4.9 8.7-9.2 0.9-4.2-2.1-10.7-6.1-13.5-0.7-0.5-1.8-1-2.8-1.2-7.1-1.5-13.2 2.4-15.5 10.1zm-38.3 4.4c-7.7 2-14.8 4.9-20.7 8.5-5.6 3.4-9 6-13.8 10.7-16 15.9-23.3 38-19.6 60.2 1.9 11.9 7.8 24.4 15.9 33.8 2.6 3.1 7.5 7.8 10.4 10 7.3 5.6 15.3 9.7 23.8 11.9 17 4.6 37.8 1.7 52.8-7.3 6.7-4.1 13.4-10.2 18.2-16.6 8.7-11.4 13.5-22.8 15-35.4 0.6-5 0.4-13.6-0.4-19-0.4-2.5-2.1-9.2-2.9-11.4-1.2-3.4-3.4-7.6-4-7.6 0 0-2.2 2.7-4.8 6-7.4 9.3-12.5 15.3-13.8 16.4-4.1 3.3-8.6 3.2-12.5-0.3-0.7-0.7-3.3-3.9-5.8-7.2-5.3-7-11.9-15.6-16-20.8-5.5-7-7.7-10.3-9.9-14.9-2.3-4.5-3-7.1-3.9-13.5-0.3-2.3-0.7-3.2-1.7-3.8-1-0.6-3-0.5-6.3 0.3zm-17.8 32.6c1.4 0 2.1 0.3 8.1 3.5 3.6 2 7.5 4 8.7 4.7 2.1 1.1 11.7 6.3 13.7 7.5 5.8 3.2 12.9 7.3 13.5 7.8 1.1 0.9 2.4 3 3.7 6.1 0.7 1.4 2.4 4.7 3.8 7.2 2.5 4.6 4.1 7.7 10.2 19.7 2 3.7 3.9 7.5 4.4 8.3 1.3 2.6 1.1 4.3-0.7 5.5-1.9 1.3-3.6 1.1-7.6-1.1-1.7-0.9-23.6-12.8-30.8-16.8-0.9-0.4-2.6-1.4-3.8-2.1-4.2-2.2-5.7-3.8-8.3-9.1-0.8-1.6-2.6-4.9-3.9-7.3-1.3-2.4-3.5-6.4-4.8-8.9-1.3-2.5-4-7.6-5.9-11.4-4-7.5-4.4-8.5-4.4-9.7 0-1.3 0.9-2.9 1.8-3.5 0.6-0.4 1.1-0.5 2.3-0.4zm11.4 14.8c-0.1 0-0.7 1-0.7 1.2 0 0.1 0.7 1.2 1.5 2.3 0.8 1.2 2.7 4.7 4.2 7.9 4.1 8.4 5.6 10.7 6.9 10.7 0.5 0 1.3-0.7 3.3-2.6 1.5-1.4 3.8-3.6 5.2-4.9 1.3-1.2 2.4-2.3 2.3-2.4-0.2-0.2-18.6-10.2-20.9-11.4-0.9-0.4-1.7-0.8-1.8-0.8zm29.4 19.9l-0.5-0.5-0.6 0.5c-0.7 0.6-6.1 5.6-8.7 8.1-1.1 1.1-1.7 1.7-1.5 1.9 0.3 0.3 21.7 11.6 21.9 11.6 0.1 0 0.3-0.2 0.5-0.6 0.4-0.6 0.4-0.7-0.8-2.2-0.6-0.8-2.6-4.6-4.5-8.4-1.9-3.7-3.8-7.5-4.4-8.3-0.5-0.8-1.2-1.8-1.4-2.1z"/>
</svg>
