<?xml version="1.0" encoding="utf-8"?>
<!-- Generator: Adobe Illustrator 25.2.1, SVG Export Plug-In . SVG Version: 6.00 Build 0)  -->
<svg version="1.1" xmlns="http://www.w3.org/2000/svg" xmlns:xlink="http://www.w3.org/1999/xlink" x="0px" y="0px"
	 viewBox="0 0 841.89 595.28" style="enable-background:new 0 0 841.89 595.28;" xml:space="preserve">
<style type="text/css">
	.st0{fill:none;stroke:#D71029;stroke-width:40;stroke-miterlimit:10;}
	.st1{fill:none;}
	.st2{fill:none;stroke:#D71029;stroke-width:20;stroke-miterlimit:10;}
	.st3{fill:none;stroke:#D71029;stroke-width:10;stroke-miterlimit:10;}
	.st4{fill:#D71029;stroke:#D71029;stroke-width:10;stroke-miterlimit:10;}
</style>
<g id="Livello_1">
	<path class="st0" d="M579.11,185.15c-39.44,0-71.4-26.82-71.4-59.92c0-12.34,4.45-23.81,12.07-33.34
		c-26.88-12.05-56.67-18.76-88.03-18.76c-119,0-215.46,96.46-215.46,215.46s96.46,215.46,215.46,215.46s215.46-96.46,215.46-215.46
		c0-41.01-11.48-79.34-31.37-111.97C605.11,182.03,592.54,185.15,579.11,185.15z"/>
	<path class="st1" d="M482.26,187.68"/>
</g>
<g id="Livello_2">
	<path class="st2" d="M407.19,313.99l51.03-51.03c0.06-0.06,0.16-0.05,0.21,0.03l75.83,126.86c0.07,0.12-0.06,0.25-0.18,0.18
		l-126.86-75.83C407.14,314.15,407.13,314.05,407.19,313.99z"/>
	<path class="st3" d="M467.62,143.94"/>
	<path class="st2" d="M458.36,263.26l-51.03,51.03c-0.06,0.06-0.16,0.05-0.21-0.03l-75.83-126.86c-0.07-0.12,0.06-0.25,0.18-0.18
		l126.86,75.83C458.41,263.1,458.42,263.2,458.36,263.26z"/>
</g>
<g id="Livello_3">
	<path class="st4" d="M501.84,161.35l74.3,102.59c0.46,0.63,1.4,0.64,1.87,0.02l76.45-101.13"/>
	<path class="st4" d="M578.47,22.66c-50.36,0-91.19,40.83-91.19,91.19c0,50.36,40.83,91.19,91.19,91.19
		c50.36,0,91.19-40.83,91.19-91.19C669.66,63.49,628.83,22.66,578.47,22.66z M578.73,150.68c-20.61,0-37.32-16.71-37.32-37.32
		s16.71-37.32,37.32-37.32s37.32,16.71,37.32,37.32S599.34,150.68,578.73,150.68z"/>
</g>
</svg>
